<?xml version="1.0" encoding="utf-8"?>
<!-- Generator: Adobe Illustrator 22.0.0, SVG Export Plug-In . SVG Version: 6.00 Build 0)  -->
<svg version="1.1" id="Capa_1" xmlns="http://www.w3.org/2000/svg" xmlns:xlink="http://www.w3.org/1999/xlink" x="0px" y="0px"
	 viewBox="0 0 512 512" style="enable-background:new 0 0 512 512;" xml:space="preserve">
<style type="text/css">
	.st0{fill:#FFFFFF;}
	.st1{fill:#70229E;}
</style>
<g>
	<g>
		<path class="st0" d="M226.8,134.8L171.9,80c-10.1-10.1-26.7-10.1-36.8,0l-21.7,21.7c-10.1,10.1-10.1,26.7,0,36.8l54.8,54.8
			c5.1,5.1,11.7,7.6,18.4,7.6c6.7,0,13.3-2.5,18.4-7.6l21.7-21.7C236.9,161.5,236.9,145,226.8,134.8z M216.4,161.3L194.7,183
			c-2.2,2.2-5,3.4-8.1,3.4c-3.1,0-5.9-1.2-8.1-3.4l-54.8-54.8c-4.5-4.5-4.5-11.7,0-16.2l21.7-21.7c2.2-2.2,5.2-3.3,8.1-3.3
			c2.9,0,5.9,1.1,8.1,3.3l54.8,54.8c2.2,2.2,3.4,5,3.4,8.1C219.8,156.3,218.6,159.2,216.4,161.3z"/>
	</g>
</g>
<g>
	<g>
		<path class="st0" d="M160.3,201.3l-54.8-54.8c-10.1-10.1-26.7-10.1-36.8,0L47,168.1c-10.1,10.1-10.1,26.7,0,36.8l54.8,54.8
			c5.1,5.1,11.7,7.6,18.4,7.6s13.3-2.5,18.4-7.6l21.7-21.7C170.4,227.9,170.4,211.4,160.3,201.3z M150,227.8l-21.7,21.7
			c-4.5,4.5-11.7,4.5-16.2,0l-54.8-54.8c-2.2-2.2-3.4-5-3.4-8.1s1.2-5.9,3.4-8.1L79,156.8c2.2-2.2,5.2-3.3,8.1-3.3s5.9,1.1,8.1,3.3
			l54.8,54.8C154.5,216.1,154.5,223.3,150,227.8z"/>
	</g>
</g>
<g>
	<g>
		<path class="st1" d="M497,169.2l-69-69c-10.4-10.4-24.7-15.8-39.3-14.9c-3.4,0.2-6.7,0.8-10,1.6c-11.8-9-26.1-17.3-41.8-24
			c-23.3-10-46.9-15.5-66.6-15.5c0,0,0,0,0,0c-2.7,0-5.3,0.1-7.8,0.3c-5.8-6.7-14.1-11.2-23.4-12.1l-66.6-6.3
			c-17.1-1.6-33.8,4.4-45.9,16.5l-69.7,69.7c-2.8,2.8-2.8,7.5,0,10.3c2.8,2.8,7.5,2.8,10.3,0l69.7-69.7c9-9,21.5-13.5,34.3-12.3
			l66.6,6.3c9.9,0.9,17.8,8.8,18.7,18.7l3.6,37.6c-0.1-0.1-0.1-0.1-0.2-0.2c-0.6-0.5-1.2-1.1-1.8-1.6c-0.5-0.5-1-1-1.5-1.4
			c-0.2-0.2-0.5-0.5-0.7-0.7c-0.7-0.7-1.4-1.4-2.1-2.1c-0.6-0.6-1.1-1.2-1.7-1.8c-0.1-0.1-0.3-0.3-0.4-0.4c-0.5-0.6-1-1.2-1.5-1.7
			c-0.1-0.1-0.2-0.3-0.3-0.4c-0.4-0.5-0.7-0.9-1.1-1.4c-0.1-0.2-0.3-0.4-0.4-0.6c-0.4-0.5-0.8-1-1.1-1.5c-0.2-0.2-0.3-0.5-0.5-0.7
			c-0.1-0.2-0.3-0.4-0.4-0.6c4.2-8.7,2.7-19.4-4.5-26.6c-9.1-9.1-23.9-9.1-32.9,0c-9.1,9.1-9.1,23.9,0,32.9
			c4.5,4.5,10.5,6.8,16.5,6.8c3.6,0,7.3-0.9,10.6-2.6c2.1,2.8,4.5,5.7,7.2,8.6c5.3,5.6,11.6,11,18.7,16.1l0.8,8.8
			c1.2,12.7-3.3,25.2-12.3,34.3L132.8,287.5c-3,3-7,4.7-11.3,4.7s-8.3-1.7-11.3-4.7l-91-91c-3-3-4.7-7-4.7-11.3s1.7-8.3,4.7-11.3
			l14.3-14.3c2.8-2.8,2.8-7.5,0-10.3c-2.8-2.8-7.5-2.8-10.3,0L8.9,163.6C-3,175.5-3,194.9,8.9,206.8l91,91
			c5.8,5.8,13.4,8.9,21.6,8.9s15.8-3.2,21.6-8.9l117.7-117.7c11.5-11.5,17.5-27.2,16.7-43.4c7.2,4.2,14.9,8,22.9,11.5
			c4.5,1.9,9.1,3.7,13.6,5.3l-41,52.9c-14,18.1-14.1,43.1-1.1,61.2l-33.6,33.6c-3.8,3.8-5.4,9.4-4.1,14.6c0.1,0.3,0,0.7-0.3,0.9
			l-24.3,24.3c-1,1-1.8,2.1-2.4,3.3l-13.7,26l-24.5,12.7c-2.6,1.3-4.7,3.5-6,6.2l-9.6,19.9l-29.2,18.3c-3.1,1.9-5.1,5.1-5.5,8.7
			l-4.2,33.1c-0.5,3.7,0.8,7.4,3.4,10c2.3,2.3,5.3,3.5,8.5,3.5c0.5,0,1,0,1.6-0.1l33.1-4.2c3.6-0.5,6.7-2.5,8.7-5.5l18.3-29.2
			l19.9-9.6c2.6-1.3,4.8-3.4,6.2-6l12.7-24.5l26-13.7c1.2-0.6,2.3-1.5,3.3-2.4l24.3-24.3c0.2-0.2,0.6-0.3,0.9-0.3
			c5.2,1.2,10.8-0.3,14.6-4.1l33.6-33.6c8.9,6.4,19.4,9.6,29.9,9.6c11,0,22-3.5,31.3-10.7l39-30.2c3.2-2.5,3.8-7,1.3-10.2
			c-2.5-3.2-7-3.8-10.2-1.3l-39,30.2c-14.3,11.1-34.6,10-47.7-2.5c0,0,0,0,0,0l-0.3-0.3c-0.1-0.1-0.2-0.2-0.3-0.3l-45.9-45.9
			c-0.1-0.1-0.2-0.2-0.3-0.3l-0.3-0.3c0,0,0,0,0,0c-12.4-13-13.6-33.4-2.5-47.7l44.3-57.2c13.5,3.6,26.5,5.6,38.2,5.6c0,0,0,0,0,0
			c3.5,0,6.8-0.2,9.9-0.5l58.2,58.2c4.2,4.2,9.8,6.3,15.3,6.3c5.5,0,11.1-2.1,15.3-6.3c8.4-8.4,8.4-22.1,0-30.6l-59.3-59.3
			c-4.1-4.1-9.5-6.3-15.3-6.3s-11.2,2.2-15.3,6.3s-6.3,9.5-6.3,15.3c0,0.8,0,1.5,0.1,2.3c-0.8,0-1.7,0-2.6,0c0,0,0,0,0,0
			c-8.7,0-18.4-1.2-28.5-3.6l24.5-31.7c6.4-8.3,16.1-13.4,26.5-14.1c10.5-0.7,20.7,3.2,28.1,10.6l69,69c7.4,7.4,11.3,17.7,10.6,28.1
			c-0.7,10.5-5.8,20.1-14.1,26.5l-23.5,18.2c-3.2,2.5-3.8,7-1.3,10.2c2.5,3.2,7,3.8,10.2,1.3l23.5-18.2c11.6-9,18.8-22.5,19.7-37.1
			C512.8,193.9,507.4,179.5,497,169.2z M225.4,90.1c-2.3,0-4.5-0.9-6.2-2.6c-1.6-1.6-2.6-3.8-2.6-6.2s0.9-4.5,2.6-6.2
			c1.6-1.6,3.8-2.6,6.2-2.6c0.4,0,0.7,0,1.1,0.1c-0.8,5.2,0,10.8,2.3,16.7C227.7,89.8,226.6,90.1,225.4,90.1z M281.8,278.5
			l36.9,36.9l-33.1,33.1c-0.2,0.2-0.6,0.3-0.9,0.3c-5.2-1.2-10.8,0.3-14.6,4.1l-24.2,24.2l-26.2,13.7c-2.5,1.3-4.5,3.3-5.8,5.8
			l-12.7,24.5l-19.9,9.6c-2.3,1.1-4.2,2.8-5.6,5L158,464.2l-28.7,3.7l3.7-28.7l28.4-17.8c2.2-1.4,3.9-3.3,5-5.6l9.6-19.9l24.5-12.7
			c2.5-1.3,4.5-3.3,5.8-5.7l13.7-26.2l24.2-24.2c3.8-3.8,5.4-9.4,4.1-14.6c-0.1-0.3,0-0.7,0.3-0.9L281.8,278.5z M405.1,150.9
			l50.2,50.2c2.7,2.7,2.7,7.2,0,10c-1.3,1.3-3.1,2.1-5,2.1s-3.7-0.7-5-2.1l-51.9-51.9C398.3,157.1,402.2,154.3,405.1,150.9z
			 M386.1,141.9c1.3-1.3,3.1-2.1,5-2.1c1.2,0,2.4,0.3,3.5,0.9c-2.1,2.7-5.7,4.9-10.5,6.3c0-0.1,0-0.1,0-0.2
			C384,145,384.8,143.2,386.1,141.9z M351.5,105l-28.1,36.4c-5.7-1.9-11.5-4-17.3-6.5c-11-4.7-21.3-10.2-30.3-16.2l-4.8-51
			c-0.2-1.9-0.5-3.8-1-5.6c0.1,0,0.2,0,0.3,0c0,0,0,0,0,0c17.8,0,39.4,5.1,60.9,14.3c11.8,5.1,22.8,11,32.2,17.5
			C359,96.9,354.9,100.6,351.5,105z"/>
	</g>
</g>
</svg>
