<?xml version="1.0" encoding="utf-8"?>
<!-- Generator: Adobe Illustrator 22.0.0, SVG Export Plug-In . SVG Version: 6.00 Build 0)  -->
<svg version="1.1" id="_x33_0" xmlns="http://www.w3.org/2000/svg" xmlns:xlink="http://www.w3.org/1999/xlink" x="0px" y="0px"
	 viewBox="0 0 512 512" style="enable-background:new 0 0 512 512;" xml:space="preserve">
<style type="text/css">
	.st0{fill:#70229E;}
	.st1{fill:#FFFFFF;}
</style>
<g>
	<path class="st0" d="M460.7,404.9l-14.2-3.5l-2.6-10.5c8.9-6.4,15.5-15.8,18.4-26.7l4.1-3.9c8.2-7.8,14.4-17.6,18-28.4
		c2.4-7.1,3.6-14.5,3.6-22v-6c0-12-4-24-11.2-33.6c-10.5-14-27.3-22.4-44.8-22.4h-32c-15.2,0-29.9,6.3-40.3,17.2
		c-1.5-19.1-9.1-36.5-20.8-50.3l20.9-20.9l-16.5-16.4c-3.5-3.5-4.4-9.1-2.1-14.6c2.1-5,6.6-8.3,11.6-8.3H376v-53.3h-23.3
		c-5,0-9.5-3.3-11.8-8.7c-2.1-5.1-1.2-10.7,2.3-14.2L359.7,62L322,24.3l-16.4,16.5c-3.5,3.5-9.1,4.4-14.6,2.1
		c-5-2.1-8.3-6.6-8.3-11.6V8h-53.3v23.3c0,5-3.3,9.5-8.7,11.8c-5.1,2.1-10.7,1.3-14.2-2.3L190,24.3L152.3,62l16.5,16.4
		c3.5,3.5,4.4,9.1,2.1,14.6c-2.1,5-6.6,8.3-11.6,8.3H136V120H72c-17.6,0-32,14.4-32,32v44.8c0,8.3,1.3,16.4,3.9,24.3l2.6,7.7
		c-4,5.4-6.5,11.9-6.5,19.1c0,17.6,14.4,32,32,32h5.5c4,8.3,9.9,15.5,17.2,20.9l-3.1,14c-1.4,6.2-6.3,11-12.5,12.2l-13.2,2.7
		C32.3,336.4,8,366.1,8,400.3V504h496v-43.7c0-15.3-5.9-29.6-16.7-40.4C480,412.6,470.8,407.4,460.7,404.9L460.7,404.9z
		 M431.4,406.7L416,432.4l-15.4-25.7l2.2-8.6c4.2,1.2,8.7,1.9,13.3,1.9s9.1-0.7,13.3-1.9L431.4,406.7z M184,256v-24
		c8.8,0,16,7.2,16,16s-7.2,16-16,16h-0.6C183.7,261.4,184,258.7,184,256z M154.6,405.1l-2.2-8.9l2.3-7l6.9,4.2
		C159.5,397.4,157.1,401.3,154.6,405.1L154.6,405.1z M178.5,280h5.5h0l0,44.2c0,1.4,0.2,2.9,0.2,4.3l-7.3-1.5
		c-6.2-1.2-11.1-6-12.5-12.2l-3.1-14C168.6,295.5,174.6,288.3,178.5,280L178.5,280z M168.8,341.4c1.6,0.6,3.2,1.1,4.9,1.4l1.8,0.4
		c-0.8,12.2-3.2,24.2-7.4,35.5l-26.2-15.7L168.8,341.4z M128,363.8L128,363.8L128,363.8L128,363.8L128,363.8z M128,373.2l12.6,7.6
		l-2.4,7.1h-20.5l-2.4-7.1L128,373.2z M101.3,389.2l2.3,7l-2.2,8.9c-2.5-3.8-4.9-7.7-7-11.8L101.3,389.2z M118.2,403.9h19.5
		l4.2,16.9c-4.3,4.6-9,8.9-14,12.8c-5-4-9.7-8.2-14-12.8L118.2,403.9z M136,447.9c32-24.3,52.1-61.3,55.5-101.2
		c23.7,6.9,40.5,28.6,40.5,53.6V488h-96V447.9z M272,344c-22.1,0-40-17.9-40-40v-31c0-10.4,6.7-19.5,16.4-22.8
		c2.2,12.5,12.3,22.4,25.2,24.1l24.4,3c8,1,14,7.8,14,15.9V304C312,326.1,294.1,344,272,344L272,344z M253.6,356.8
		c5.8,2,12,3.2,18.4,3.2s12.6-1.2,18.4-3.2l2.6,13c1.3,6.4,4.4,12.1,8.9,16.5L291.1,408h-38.1l-5.1-10.1c-0.2-5.4-0.9-10.6-2.2-15.7
		c2.6-3.7,4.4-7.8,5.3-12.3L253.6,356.8z M272,446.1L260.9,424h22.1L272,446.1z M248,433.9l16,32V488h-16V433.9z M280,465.9
		l35.8-71.6c0.8,0.2,1.5,0.5,2.3,0.6l19.3,3.9c22.4,4.5,38.6,24.3,38.6,47.1V488h-96L280,465.9z M357.7,351.2c2.4,3.2,5,6.4,7.9,9.2
		l4.1,3.9c2.9,10.9,9.5,20.3,18.4,26.7l-2.6,10.5l-9.4,2.4c-7.4-8.5-17.1-15-28.1-18.6C352.4,374.2,355.7,362.8,357.7,351.2
		L357.7,351.2z M385.5,417.9l2.7-0.7l19.8,33V488h-16v-42.1C392,435.9,389.6,426.4,385.5,417.9z M448,352c0,17.6-14.4,32-32,32
		s-32-14.4-32-32v-18.2c11.8-3.9,22.8-10.3,32-18.6c9.2,8.3,20.2,14.7,32,18.6V352z M400,264h32c12.5,0,24.5,6,32,16
		c5.2,6.9,8,15.4,8,24v6c0,5.8-0.9,11.5-2.7,16.9c-1.3,3.9-3.1,7.6-5.3,11.1v-4.3c0-6.9-4.4-13-10.9-15.2
		c-11-3.7-21.1-9.9-29.2-18.1l-7.8-7.8l-7.8,7.8c-8.2,8.2-18.3,14.4-29.2,18.1c-6.6,2.2-10.9,8.3-10.9,15.2v4.3
		c-2.2-3.5-4-7.2-5.3-11.1c-1.8-5.5-2.7-11.2-2.7-16.9v-6c0-8.6,2.8-17.1,8-24C375.5,270,387.5,264,400,264z M344,304v6v14.2
		c0,19.6-4.1,39.2-12,57.2l-10.8-2.2c-6.4-1.3-11.3-6.2-12.5-12.6l-3.5-17.7c13.8-10.2,22.8-26.6,22.8-45v-10.8
		c0-16.1-12-29.8-28-31.8l-24.4-3c-6.6-0.8-11.6-6.5-11.6-13.1c0-7.3,5.9-13.2,13.2-13.2h2.8v-16h-2.8c-11.8,0-22,7-26.6,17.1
		l-4.3,1.1c-17.8,4.5-30.3,20.4-30.3,38.8v31c0,18.5,9,34.8,22.8,45l-2.5,12.3c-8.4-13-21-23.2-36-28.7c-0.2-2.8-0.4-5.6-0.4-8.4
		v-48.7c9.5-5.6,16-15.8,16-27.6c0-5.6-1.6-10.8-4.1-15.4c13.3-20.2,35.8-32.6,60.1-32.6c39.7,0,72,32.3,72,72L344,304z
		 M159.3,117.3c11.4,0,21.8-7.1,26.5-18.5c4.7-11.1,2.4-23.6-5.8-31.8l-5.1-5.1L190,46.9l5.1,5.1c8.2,8.2,20.6,10.4,32.1,5.6
		c11-4.6,18.2-14.9,18.2-26.4V24h21.3v7.3c0,11.4,7.1,21.8,18.5,26.5c11.1,4.7,23.6,2.4,31.8-5.8l5.1-5.1L337.1,62l-5.1,5.1
		c-8.2,8.1-10.4,20.6-5.6,32.1c4.6,11,14.9,18.2,26.4,18.2h7.3v21.3h-7.3c-11.4,0-21.8,7.1-26.5,18.5c-4.7,11.1-2.4,23.6,5.8,31.8
		l5.1,5.1l-9.7,9.7C312.2,191.4,293,184,272,184c-21,0-40.8,7.6-56.5,20.7c0.3-2.6,0.5-5.3,0.5-7.9c0-38-27.7-69.5-64-75.7v-3.8
		L159.3,117.3L159.3,117.3z M56,152c0-8.8,7.2-16,16-16h67.2c33.5,0,60.8,27.3,60.8,60.8c0,6.6-1,13-3.1,19.2l-0.8,2.3
		c-3.7-1.5-7.8-2.4-12.1-2.4h-1.5c-3.3-9.3-12.1-16-22.5-16h-16c-13.2,0-24-10.8-24-24v-24h-16v24c0,1.9,0.1,3.8,0.4,5.6l-12.3,4.9
		C80,191.4,72.1,202.9,72,216h0c-4.3,0-8.4,0.9-12.1,2.4l-0.8-2.3c-2.1-6.2-3.1-12.7-3.1-19.2L56,152z M72,264c-8.8,0-16-7.2-16-16
		s7.2-16,16-16v24c0,2.7,0.3,5.4,0.6,8H72z M88,256v-39.8c0-6.6,4-12.4,10.1-14.9l11.7-4.7c7,11.6,19.7,19.3,34.2,19.3h16
		c4.4,0,8,3.6,8,8v32c0,22.1-17.9,40-40,40S88,278.1,88,256z M128,312c6.5,0,12.8-1.2,18.6-3.2l2.2,9.6c1.1,5,3.4,9.5,6.6,13.3
		L128,353.5l-27.3-21.9c3.1-3.8,5.4-8.3,6.5-13.3l2.2-9.6C115.2,310.8,121.5,312,128,312z M87.2,341.4l26.9,21.5l-26.2,15.7
		c-4.2-11.3-6.6-23.2-7.4-35.5l1.8-0.4C84,342.4,85.6,341.9,87.2,341.4L87.2,341.4z M24,400.3c0-25,16.8-46.7,40.5-53.6
		c3.3,39.8,23.5,76.8,55.5,101.1V488H24L24,400.3z M488,488h-64v-37.8l19.8-33l13.1,3.3c7.2,1.8,13.8,5.5,19.1,10.8
		c7.8,7.8,12,18.1,12,29.1L488,488z"/>
	<path class="st1" d="M488,24h16v16h-16V24z"/>
	<path class="st1" d="M456,24h16v16h-16V24z"/>
	<path class="st1" d="M424,24h16v16h-16V24z"/>
	<path class="st1" d="M488,56h16v16h-16V56z"/>
	<path class="st1" d="M456,56h16v16h-16V56z"/>
	<path class="st1" d="M424,56h16v16h-16V56z"/>
	<path class="st1" d="M392,24h16v16h-16V24z"/>
	<path class="st1" d="M8,24h16v16H8V24z"/>
	<path class="st1" d="M40,24h16v16H40V24z"/>
	<path class="st1" d="M72,24h16v16H72V24z"/>
	<path class="st1" d="M8,56h16v16H8V56z"/>
	<path class="st1" d="M40,56h16v16H40V56z"/>
	<path class="st1" d="M72,56h16v16H72V56z"/>
	<path class="st1" d="M104,24h16v16h-16V24z"/>
	<path class="st1" d="M256,182.7c30.1,0,54.7-24.5,54.7-54.7S286.1,73.3,256,73.3s-54.7,24.5-54.7,54.7S225.9,182.7,256,182.7z
		 M256,89.3c21.3,0,38.7,17.3,38.7,38.7s-17.3,38.7-38.7,38.7s-38.7-17.3-38.7-38.7S234.7,89.3,256,89.3z"/>
</g>
</svg>
